<svg xmlns="http://www.w3.org/2000/svg" width="755.51733" height="563.72083" x="0px" y="0px" viewBox="0 0 755.51733 563.72083"><path fill="none" d="M-9.097-3.745h773.042v575.82H-9.097z" style="fill:#010314;fill-opacity:0"/><defs><linearGradient id="a" x1="0" x2="1" y1="0" y2="0" gradientTransform="rotate(17.98 -250.767 1997.243)scale(168.0992)" gradientUnits="userSpaceOnUse" spreadMethod="pad"><stop offset="0" style="stop-opacity:1;stop-color:#80cfe2"/><stop offset="0.0575107" style="stop-opacity:1;stop-color:#80cfe2"/><stop offset="1" style="stop-opacity:1;stop-color:#0f298f"/></linearGradient><linearGradient id="c" x1="0" x2="1" y1="0" y2="0" gradientTransform="rotate(152.05 309.59 170.954)scale(10.74216)" gradientUnits="userSpaceOnUse" spreadMethod="pad"><stop offset="0" style="stop-opacity:1;stop-color:#80cfe2"/><stop offset="0.0575107" style="stop-opacity:1;stop-color:#80cfe2"/><stop offset="1" style="stop-opacity:1;stop-color:#0f298f"/></linearGradient><linearGradient id="d" x1="0" x2="1" y1="0" y2="0" gradientTransform="rotate(20.556 -286.436 1896.689)scale(14.06748)" gradientUnits="userSpaceOnUse" spreadMethod="pad"><stop offset="0" style="stop-opacity:1;stop-color:#80cfe2"/><stop offset="0.0575107" style="stop-opacity:1;stop-color:#80cfe2"/><stop offset="1" style="stop-opacity:1;stop-color:#0f298f"/></linearGradient><linearGradient id="e" x1="0" x2="1" y1="0" y2="0" gradientTransform="scale(7.4769)rotate(-11.201 165.622 -423.658)" gradientUnits="userSpaceOnUse" spreadMethod="pad"><stop offset="0" style="stop-opacity:1;stop-color:#80cfe2"/><stop offset="0.0575107" style="stop-opacity:1;stop-color:#80cfe2"/><stop offset="1" style="stop-opacity:1;stop-color:#0f298f"/></linearGradient><linearGradient id="f" x1="0" x2="1" y1="0" y2="0" gradientTransform="matrix(-7.35928 -45.8993 45.8993 -7.35928 644.198 218.836)" gradientUnits="userSpaceOnUse" spreadMethod="pad"><stop offset="0" style="stop-opacity:1;stop-color:#80cfe2"/><stop offset="0.0575107" style="stop-opacity:1;stop-color:#80cfe2"/><stop offset="1" style="stop-opacity:1;stop-color:#0f298f"/></linearGradient><linearGradient id="g" x1="0" x2="1" y1="0" y2="0" gradientTransform="rotate(107.96 270.696 330.217)scale(48.05109)" gradientUnits="userSpaceOnUse" spreadMethod="pad"><stop offset="0" style="stop-opacity:1;stop-color:#80cfe2"/><stop offset="0.0575107" style="stop-opacity:1;stop-color:#80cfe2"/><stop offset="1" style="stop-opacity:1;stop-color:#0f298f"/></linearGradient><linearGradient id="h" x1="0" x2="1" y1="0" y2="0" gradientTransform="matrix(0 4.0702 -4.0702 0 650.68 191.611)" gradientUnits="userSpaceOnUse" spreadMethod="pad"><stop offset="0" style="stop-opacity:1;stop-color:#80cfe2"/><stop offset="0.0575107" style="stop-opacity:1;stop-color:#80cfe2"/><stop offset="1" style="stop-opacity:1;stop-color:#0f298f"/></linearGradient><linearGradient id="i" x1="0" x2="1" y1="0" y2="0" gradientTransform="scale(36.06522)rotate(85.495 6.254 12.154)" gradientUnits="userSpaceOnUse" spreadMethod="pad"><stop offset="0" style="stop-opacity:1;stop-color:#80cfe2"/><stop offset="0.0575107" style="stop-opacity:1;stop-color:#80cfe2"/><stop offset="1" style="stop-opacity:1;stop-color:#0f298f"/></linearGradient><linearGradient id="j" x1="0" x2="1" y1="0" y2="0" gradientTransform="translate(644.049 188.846)scale(8.86026)" gradientUnits="userSpaceOnUse" spreadMethod="pad"><stop offset="0" style="stop-opacity:1;stop-color:#80cfe2"/><stop offset="0.0575107" style="stop-opacity:1;stop-color:#80cfe2"/><stop offset="1" style="stop-opacity:1;stop-color:#0f298f"/></linearGradient><linearGradient id="k" x1="0" x2="1" y1="0" y2="0" gradientTransform="matrix(6.21484 0 0 6.21484 653.107 184.669)" gradientUnits="userSpaceOnUse" spreadMethod="pad"><stop offset="0" style="stop-opacity:1;stop-color:#80cfe2"/><stop offset="0.0575107" style="stop-opacity:1;stop-color:#80cfe2"/><stop offset="1" style="stop-opacity:1;stop-color:#0f298f"/></linearGradient><linearGradient id="l" x1="0" x2="1" y1="0" y2="0" gradientTransform="scale(36.06522)rotate(85.495 6.248 12.164)" gradientUnits="userSpaceOnUse" spreadMethod="pad"><stop offset="0" style="stop-opacity:1;stop-color:#80cfe2"/><stop offset="0.0575107" style="stop-opacity:1;stop-color:#80cfe2"/><stop offset="1" style="stop-opacity:1;stop-color:#0f298f"/></linearGradient><linearGradient id="m" x1="0" x2="1" y1="0" y2="0" gradientTransform="translate(650.67 205.717)scale(7.67871)" gradientUnits="userSpaceOnUse" spreadMethod="pad"><stop offset="0" style="stop-opacity:1;stop-color:#80cfe2"/><stop offset="0.0575107" style="stop-opacity:1;stop-color:#80cfe2"/><stop offset="1" style="stop-opacity:1;stop-color:#0f298f"/></linearGradient><linearGradient id="n" x1="0" x2="1" y1="0" y2="0" gradientTransform="rotate(83.812 206.697 468.439)scale(8.08293)" gradientUnits="userSpaceOnUse" spreadMethod="pad"><stop offset="0" style="stop-opacity:1;stop-color:#80cfe2"/><stop offset="0.0575107" style="stop-opacity:1;stop-color:#80cfe2"/><stop offset="1" style="stop-opacity:1;stop-color:#0f298f"/></linearGradient><linearGradient id="o" x1="0" x2="1" y1="0" y2="0" gradientTransform="scale(-10.60623)rotate(-23.405 -76.597 148.62)" gradientUnits="userSpaceOnUse" spreadMethod="pad"><stop offset="0" style="stop-opacity:1;stop-color:#80cfe2"/><stop offset="0.0575107" style="stop-opacity:1;stop-color:#80cfe2"/><stop offset="1" style="stop-opacity:1;stop-color:#0f298f"/></linearGradient><linearGradient id="p" x1="0" x2="1" y1="0" y2="0" gradientTransform="scale(9.04334)rotate(-23.682 92.36 -169.51)" gradientUnits="userSpaceOnUse" spreadMethod="pad"><stop offset="0" style="stop-opacity:1;stop-color:#80cfe2"/><stop offset="0.0575107" style="stop-opacity:1;stop-color:#80cfe2"/><stop offset="1" style="stop-opacity:1;stop-color:#0f298f"/></linearGradient><linearGradient id="q" x1="0" x2="1" y1="0" y2="0" gradientTransform="scale(48.22279)rotate(89.77 5.186 8.966)" gradientUnits="userSpaceOnUse" spreadMethod="pad"><stop offset="0" style="stop-opacity:1;stop-color:#80cfe2"/><stop offset="0.0575107" style="stop-opacity:1;stop-color:#80cfe2"/><stop offset="1" style="stop-opacity:1;stop-color:#0f298f"/></linearGradient><linearGradient id="r" x1="0" x2="1" y1="0" y2="0" gradientTransform="rotate(-35.249 662.835 -945)scale(42.45333)" gradientUnits="userSpaceOnUse" spreadMethod="pad"><stop offset="0" style="stop-opacity:1;stop-color:#80cfe2"/><stop offset="0.0575107" style="stop-opacity:1;stop-color:#80cfe2"/><stop offset="1" style="stop-opacity:1;stop-color:#0f298f"/></linearGradient><linearGradient id="s" x1="0" x2="1" y1="0" y2="0" gradientTransform="matrix(4.35835 -9.10417 9.10419 4.35835 717.166 204.472)" gradientUnits="userSpaceOnUse" spreadMethod="pad"><stop offset="0" style="stop-opacity:1;stop-color:#80cfe2"/><stop offset="0.0575107" style="stop-opacity:1;stop-color:#80cfe2"/><stop offset="1" style="stop-opacity:1;stop-color:#0f298f"/></linearGradient><linearGradient id="t" x1="0" x2="1" y1="0" y2="0" gradientTransform="matrix(2.65527 0 0 2.65527 718.254 181.104)" gradientUnits="userSpaceOnUse" spreadMethod="pad"><stop offset="0" style="stop-opacity:1;stop-color:#80cfe2"/><stop offset="0.0575107" style="stop-opacity:1;stop-color:#80cfe2"/><stop offset="1" style="stop-opacity:1;stop-color:#0f298f"/></linearGradient><linearGradient id="u" x1="0" x2="1" y1="0" y2="0" gradientTransform="rotate(-37.734 681.885 -938.247)scale(10.28891)" gradientUnits="userSpaceOnUse" spreadMethod="pad"><stop offset="0" style="stop-opacity:1;stop-color:#80cfe2"/><stop offset="0.0575107" style="stop-opacity:1;stop-color:#80cfe2"/><stop offset="1" style="stop-opacity:1;stop-color:#0f298f"/></linearGradient><linearGradient id="v" x1="0" x2="1" y1="0" y2="0" gradientTransform="matrix(14.5225 0 0 14.5225 705.222 202.693)" gradientUnits="userSpaceOnUse" spreadMethod="pad"><stop offset="0" style="stop-opacity:1;stop-color:#80cfe2"/><stop offset="0.0575107" style="stop-opacity:1;stop-color:#80cfe2"/><stop offset="1" style="stop-opacity:1;stop-color:#0f298f"/></linearGradient><linearGradient id="w" x1="0" x2="1" y1="0" y2="0" gradientTransform="matrix(4.06728 41.7378 -41.7378 4.06728 705.455 183.59)" gradientUnits="userSpaceOnUse" spreadMethod="pad"><stop offset="0" style="stop-opacity:1;stop-color:#80cfe2"/><stop offset="0.0575107" style="stop-opacity:1;stop-color:#80cfe2"/><stop offset="1" style="stop-opacity:1;stop-color:#0f298f"/></linearGradient><linearGradient id="x" x1="0" x2="1" y1="0" y2="0" gradientTransform="translate(704.903 216.93)scale(15.1631)" gradientUnits="userSpaceOnUse" spreadMethod="pad"><stop offset="0" style="stop-opacity:1;stop-color:#80cfe2"/><stop offset="0.0575107" style="stop-opacity:1;stop-color:#80cfe2"/><stop offset="1" style="stop-opacity:1;stop-color:#0f298f"/></linearGradient><linearGradient id="y" x1="0" x2="1" y1="0" y2="0" gradientTransform="rotate(38.446 74.538 1113.84)scale(16.20163)" gradientUnits="userSpaceOnUse" spreadMethod="pad"><stop offset="0" style="stop-opacity:1;stop-color:#80cfe2"/><stop offset="0.0575107" style="stop-opacity:1;stop-color:#80cfe2"/><stop offset="1" style="stop-opacity:1;stop-color:#0f298f"/></linearGradient><linearGradient id="z" x1="0" x2="1" y1="0" y2="0" gradientTransform="scale(9.63922)rotate(-56.47 54.856 -58.958)" gradientUnits="userSpaceOnUse" spreadMethod="pad"><stop offset="0" style="stop-opacity:1;stop-color:#80cfe2"/><stop offset="0.0575107" style="stop-opacity:1;stop-color:#80cfe2"/><stop offset="1" style="stop-opacity:1;stop-color:#0f298f"/></linearGradient><linearGradient id="A" x1="0" x2="1" y1="0" y2="0" gradientTransform="scale(41.9338)rotate(84.434 6.031 11.476)" gradientUnits="userSpaceOnUse" spreadMethod="pad"><stop offset="0" style="stop-opacity:1;stop-color:#80cfe2"/><stop offset="0.0575107" style="stop-opacity:1;stop-color:#80cfe2"/><stop offset="1" style="stop-opacity:1;stop-color:#0f298f"/></linearGradient><linearGradient id="B" x1="0" x2="1" y1="0" y2="0" gradientTransform="scale(20.3706)rotate(15.721 -21.969 130.658)" gradientUnits="userSpaceOnUse" spreadMethod="pad"><stop offset="0" style="stop-opacity:1;stop-color:#80cfe2"/><stop offset="0.0575107" style="stop-opacity:1;stop-color:#80cfe2"/><stop offset="1" style="stop-opacity:1;stop-color:#0f298f"/></linearGradient><linearGradient id="C" x1="0" x2="1" y1="0" y2="0" gradientTransform="rotate(11.31 -544.235 3625.547)scale(37.52535)" gradientUnits="userSpaceOnUse" spreadMethod="pad"><stop offset="0" style="stop-opacity:1;stop-color:#80cfe2"/><stop offset="0.0575107" style="stop-opacity:1;stop-color:#80cfe2"/><stop offset="1" style="stop-opacity:1;stop-color:#0f298f"/></linearGradient><linearGradient id="D" x1="0" x2="1" y1="0" y2="0" gradientTransform="rotate(-98.022 451.461 -193.122)scale(58.2852)" gradientUnits="userSpaceOnUse" spreadMethod="pad"><stop offset="0" style="stop-opacity:1;stop-color:#80cfe2"/><stop offset="0.0575107" style="stop-opacity:1;stop-color:#80cfe2"/><stop offset="1" style="stop-opacity:1;stop-color:#0f298f"/></linearGradient><clipPath id="b" clipPathUnits="userSpaceOnUse"><path d="M0 1190.551h841.89V0H0Z"/></clipPath></defs><path d="M664.358 257.139c-44.15-14.329-71.898-50.731-61.978-81.303 9.926-30.574 53.758-43.742 97.912-29.414 44.151 14.33 71.902 50.73 61.977 81.307-7.201 22.183-32.256 35.202-62.334 35.202-11.372 0-23.463-1.862-35.577-5.792" style="fill:url(#a);stroke:none" transform="matrix(4.60928 0 0 -4.60928 -2767.269 1211.922)"/><g clip-path="url(#b)" transform="matrix(4.60928 0 0 -4.60928 -2767.269 1211.922)"><path d="M0 0c8.381-25.844-20.111-58.246-63.651-72.375-43.537-14.129-85.633-4.633-94.018 21.203-8.385 25.842 20.11 58.246 63.646 72.375C-50.481 35.332-8.393 25.84 0 0" style="fill:#fff;fill-opacity:1;fill-rule:nonzero;stroke:none" transform="translate(761.162 227.367)"/><path d="M0 0s-1.418.357-2.74-.104c-1.307-.455-2.389-1.5-2.389-1.5" style="fill:#000;fill-opacity:1;fill-rule:nonzero;stroke:none" transform="translate(747.775 221.879)"/><path d="M0 0c-.081.102-.477.857-.386.975.096.121 1.699.892 1.699.892s.79-.07 1.149.031c.365.098 2.522.75 4.517 1.559 2.023.822 4.834 2.369 5.064 2.547.209.154 1.752 2.174 2.109 2.637-.201-.028-1.347-.446-2.099-.713-.803-.282-1.803-.641-2.051-.807-.244-.164-6.481-3.689-6.481-3.689l-5.572 1.879-1.093-.592 2.747-3.692-.11-.214-1.349 1.054-1.317-.605-.055-.09.384-.557L-.067-.49S.079-.096 0 0" style="fill:gray;fill-opacity:1;fill-rule:nonzero;stroke:none" transform="translate(732.55 213.385)"/><path d="m0 0 1.473.768c.075.023.117-.008-.244-.202C1.022.461.035-.078.035-.078H-.02Z" style="fill:gray;fill-opacity:1;fill-rule:nonzero;stroke:none" transform="translate(729.427 218.137)"/><path d="m0 0-.041.074.061.069 1.588.746c.065 0 .05-.088-.246-.182C1.07.611 0-.02 0-.02" style="fill:gray;fill-opacity:1;fill-rule:nonzero;stroke:none" transform="translate(729.358 214.504)"/><path d="M0 0s.738 1.086.859 1.33c.117.246.185.506.205.619.025.115.225 1.955.225 2.143-.002.185-.212 1.789-.238 1.924-.03.136.017.312.146.482.139.174 1.282 1.293 1.514 1.414.23.125.603.33.871.172.272-.16 3.693-2.742 3.861-2.758.168-.023 1.063-.037 1.063-.037S6.768 3.934 6.494 3.814c-.277-.119-2.269-1.656-3.18-2.128C2.408 1.217.44.07.012-.037" style="fill:#000;fill-opacity:1;fill-rule:nonzero;stroke:none" transform="translate(734.824 215.508)"/><path d="M0 0c-.08.113-1.131-.385-2.348-1.107-1.205-.719-2.115-1.385-2.041-1.497.032-.05.266.022.623.188.426.193 1.032.512 1.686.898C-1.059-.912-.242-.336-.045-.098z" style="fill:#000;fill-opacity:1;fill-rule:nonzero;stroke:none" transform="translate(743.473 221.818)"/><path d="M0 0c-.078.113-1.121-.375-2.322-1.082-1.198-.705-2.098-1.361-2.024-1.475.035-.05.262.02.621.18.424.191 1.02.504 1.668.883C-1.047-.9-.234-.334-.043-.098z" style="fill:#000;fill-opacity:1;fill-rule:nonzero;stroke:none" transform="translate(741.93 219.533)"/><path d="M0 0c-1.021-.479-1.797-.941-1.744-1.039.025-.047.221-.008.519.094.356.117.866.326 1.418.584.864.402 1.557.799 1.729.978l.039.072C1.91.791 1.025.479 0 0" style="fill:#000;fill-opacity:1;fill-rule:nonzero;stroke:none" transform="translate(739.248 213.037)"/><path d="M0 0c-.299.082-1.533.039-2.594-.201C-3.793-.477-5.469-1-5.469-1c-.041-.041-1.275-2.254-1.402-2.332-.129-.076-.465-.709-1.143-.953 0 0 .856.306 1.018.34l-.086-.125c.937.504 2.475 1.326 2.896 1.535C-3.584-2.244-.828-1.068 0 0" style="fill:gray;fill-opacity:1;fill-rule:nonzero;stroke:none" transform="translate(752.096 222.664)"/><path d="M0 0c-.828-1.068-3.584-2.244-4.186-2.535A185 185 0 0 1-7.082-4.07c-.254-.229-.871-.701-1.086-.819-.225-.127.91.426 1.607.737l.061.07c.104.057 2.627 1.453 3.918 2.068C-1.271-1.395.104-.174.076-.041z" style="fill:#000;fill-opacity:1;fill-rule:nonzero;stroke:none" transform="translate(752.096 222.664)"/><path d="m0 0 .104.361H.076c-.357-.463-1.9-2.482-2.109-2.636C-2.264-2.453-5.074-4-7.098-4.822a50 50 0 0 0-4.516-1.559c-.309-.088-.931-.045-1.104-.031.591.41.802.662.78.682l-.958.382.381.225s-2.241.631-2.375.644c-.131.014-.267-.011-.57-.283-.312-.271-.65-.732-.684-.82-.044-.094.428-2.17.499-2.283 0 0 .439.105 1.175.451l.004-.022c-.132-.185-.162-.509-.067-.834.053-.179.136-.33.235-.439l-2.622 1.045 2.055-2.988s-1.057-.647-1.072-.823c-.009-.17.583.061.583.061l-.415-.369s-.784-2.174-.64-2.242c.138-.067.791.134.937.226s2.426 2.754 2.426 2.754l-.246-.066.329.484 1.315.295-.011-.125c-.008-.02.045-.272-.069-.637-.218-.709-.523-1.715-.505-1.736.029-.033.55.098.907.187.356.094.785.211.873.317.088.101 2.83 3.48 2.83 3.48s2.762 1.416 3.232 1.758c.471.344 2.522 2.643 2.557 2.709.033.059.537.959.742 1.227-.697-.311-1.832-.864-1.607-.737.287.162 1.334.973 1.172.944-.162-.034-1.018-.34-1.018-.34.678.244 1.014.877 1.143.953C-1.275-2.254-.041-.041 0 0" style="fill:#000;fill-opacity:1;fill-rule:nonzero;stroke:none" transform="translate(746.627 221.664)"/><path d="M0 0c.116-.404.024-.811-.213-.902s-.529.164-.65.57c-.118.404-.023.805.215.896C-.413.658-.121.404 0 0" style="fill:#000;fill-opacity:1;fill-rule:nonzero;stroke:none" transform="translate(732.832 212.266)"/><path d="M0 0c-1.465-.73-2.598-1.814-3.07-2.307.853.244 2.543.891 3.877 1.516C2.891.182 4.09 1.025 4.498 1.541 3.779 1.541 1.668.824 0 0" style="fill:gray;fill-opacity:1;fill-rule:nonzero;stroke:none" transform="translate(741.275 215.9)"/><path d="M0 0c-.15.35-2.305-.326-4.781-1.496-2.432-1.147-4.258-2.34-4.121-2.684.064-.154.529-.109 1.248.1.472.492 1.605 1.576 3.07 2.307C-2.916-.949-.805-.232-.086-.232Q.033-.086 0 0" style="fill:#000;fill-opacity:1;fill-rule:nonzero;stroke:none" transform="translate(745.86 217.674)"/><path d="m0 0 .117-.27-.109-.06-.217.228" style="fill:#000;fill-opacity:1;fill-rule:nonzero;stroke:none" transform="translate(748.877 220.412)"/><path d="M0 0h-24.869l-6.959-54.02h14.542q.179 2.42.331 4.329h5.131l-.13-4.37H5.235l-.697 4.37h3.918v.41a18 18 0 0 0-.929 2.404l-1.905 7.586C3.311-23.904 1.556-11.789.396-3.258" style="fill:#000;fill-opacity:1;fill-rule:nonzero;stroke:none" transform="translate(657.813 226.959)"/><path d="M0 0v-8.6h-1.646v-.027h-14.376V2.389c0 .857-.222.857-.712.857-.447 0-.829 0-.829-1.252v-26.98c0-1.25.343-1.25.712-1.25.449 0 .829 0 .829 1.302v9.649h14.376v-.012H0v-10.178c0-2.306-.465-4.875-1.392-7.718-.42-1.131-1.287-2.239-2.61-3.319q-1.984-1.629-2.054-2.097l-.144-.883h-23.803v1.763h2.296q-1.546.702-2.723 3.084s-2.113 4.206-2.147 9.252V.504q0 6.978 4.729 10.916 4.461 3.726 11.487 3.726 6.473.001 10.581-2.785c3.158-2.082 5.089-4.863 5.507-9.029" style="fill:#000;fill-opacity:1;fill-rule:nonzero;stroke:none" transform="translate(695.576 212.322)"/><path d="M0 0h-10.728v6.791h9.227v11.377h-6.095v2.061h-3.132v6.429h3.59v-.01h6.174v14.204h-24.102l-5.215-.004-.004-1.532V-8.953h5.219v-4.295H.057" style="fill:#000;fill-opacity:1;fill-rule:nonzero;stroke:none" transform="translate(726.488 186.402)"/><path d="M0 0c16.437-7.76 41.51-14.061 59.611-14.988 19.396-.957 37.904 2.961 53.529 11.334l.12.064.494 1.277-2.022 2.629-.268-.154c-15.241-8.488-32.611-12.713-51.65-12.558C42.836-12.23 17.802-6.738.298.664Z" style="fill:#000;fill-opacity:1;fill-rule:nonzero;stroke:none" transform="translate(616.991 213.99)"/><path d="M0 0c-1.891 0-3.767.045-5.646.139-18.231.935-43.125 7.232-59.474 14.957C-48.477 8.057-23.39 2.18-5.467 2.008q.51-.005 1.017-.004c17.562 0 34.824 3.703 50.81 12.607l1.703-2.218-.371-.963C32.992 3.553 16.396 0 0 0m-64.838 15.764-.591-1.325c4.038-1.908 8.653-3.755 13.7-5.492a193 193 0 0 1 15.464-4.578A191 191 0 0 1-20.447 1.07C-15.146.203-10.176-.354-5.68-.584-3.8-.678-1.891-.723 0-.723c8.438 0 16.732.934 24.648 2.78 8.32 1.935 16.185 4.877 23.386 8.736l.239.123.095.252.371.965.151.381-.252.324-1.7 2.217-.38.494-.55-.305a96.6 96.6 0 0 0-24.631-9.57A106 106 0 0 0 8.569 3.441 118 118 0 0 0-4.45 2.727l-1.012.003c-4.324.043-9.188.418-14.453 1.122-5.024.671-10.31 1.625-15.701 2.832-10.621 2.375-20.998 5.603-29.222 9.08" style="fill:#fff;fill-opacity:1;fill-rule:nonzero;stroke:none" transform="translate(682.27 199.225)"/><path d="m0 0-.552.338C-9.144-5.555-19.73-8.215-30.068-10.244-19.617-8.625-9.196-5.75 0 0" style="fill:#fff;fill-opacity:1;fill-rule:nonzero;stroke:none" transform="translate(730.176 212.717)"/></g><path d="M651.763 178.635h13.153v1.123c-2.421 0-7.586 3.722-7.586 3.722z" style="fill:url(#c);stroke:none" transform="matrix(4.60928 0 0 -4.60928 -2767.269 1211.922)"/><path d="m639.813 224.107 4.928-3.378h8.439l3.513 3.378z" style="fill:url(#d);stroke:none" transform="matrix(4.60928 0 0 -4.60928 -2767.269 1211.922)"/><path d="m639.761 183.4-.014-.12zl-6.013-4.75v-.015h12.283l-6.206 4.822z" style="fill:url(#e);stroke:none" transform="matrix(4.60928 0 0 -4.60928 -2767.269 1211.922)"/><path d="m639.701 224.107-5.953-45.457 6.013 4.75 4.952 37.352-4.9 3.355z" style="fill:url(#f);stroke:none" transform="matrix(4.60928 0 0 -4.60928 -2767.269 1211.922)"/><path d="m656.693 224.107-3.484-3.345 4.17-37.317c.499-.354 5.243-3.687 7.537-3.687v.027s-1.996 2.082-2.797 7.526c-2.334 15.878-4.16 28.138-5.335 36.796z" style="fill:url(#g);stroke:none" transform="matrix(4.60928 0 0 -4.60928 -2767.269 1211.922)"/><path d="M650.374 194.994h-3.809l-5.534-2.651h15.353v.002l-6.013 2.684z" style="fill:url(#h);stroke:none" transform="matrix(4.60928 0 0 -4.60928 -2767.269 1211.922)"/><path d="m640.947 192.343-1.186-8.943.064.057 6.206-4.822h.025c.301 4.054.531 6.826.679 8.318h.022l-5.779 5.39z" style="fill:url(#i);stroke:none" transform="matrix(4.60928 0 0 -4.60928 -2767.269 1211.922)"/><path d="m640.978 192.343 5.779-5.39h4.407l5.213 5.39z" style="fill:url(#j);stroke:none" transform="matrix(4.60928 0 0 -4.60928 -2767.269 1211.922)"/><path d="m656.377 192.343-5.213-5.39h.018l.571-8.318h.01l5.567 4.845.049-.035-.995 8.898z" style="fill:url(#k);stroke:none" transform="matrix(4.60928 0 0 -4.60928 -2767.269 1211.922)"/><path d="M640.947 192.343h.084l5.534 2.651 2.085 18.861.003.215-3.947 6.622z" style="fill:url(#l);stroke:none" transform="matrix(4.60928 0 0 -4.60928 -2767.269 1211.922)"/><path d="m648.706 214.144 1.665-19.115 6.013-2.684-3.168 28.35z" style="fill:url(#m);stroke:none" transform="matrix(4.60928 0 0 -4.60928 -2767.269 1211.922)"/><path d="M653.18 220.729h-8.439l-.028.023-.007-.06 3.947-6.622.025.034.012.155.016-.115 4.51 6.551-.007.067z" style="fill:url(#n);stroke:none" transform="matrix(4.60928 0 0 -4.60928 -2767.269 1211.922)"/><path d="M681.592 195.666v-.004l5.772-2.838 5.322 2.842z" style="fill:url(#o);stroke:none" transform="matrix(4.60928 0 0 -4.60928 -2767.269 1211.922)"/><path d="M681.612 205.064h11.139v.033l-5.626 3.989z" style="fill:url(#p);stroke:none" transform="matrix(4.60928 0 0 -4.60928 -2767.269 1211.922)"/><path d="M671.666 214.334c-.187-2.84.038-26.033.038-26.033s-.209-6.572 7.89-6.719c7.403-.137 7.804 6.859 7.804 6.859l-.016 4.395-.018-.012-5.772 2.838v-8.273c0-1.782-.72-2.674-2.173-2.674q-2.056.001-2.057 2.621v26.98q0 2.625 2.171 2.624c1.376 0 2.059-.745 2.059-2.229v-9.647h.02l5.513 4.022.018-.012v4.305s.11 7.43-6.596 7.844q-.453.027-.879.027c-5.565 0-7.769-3.473-8.002-6.916" style="fill:url(#q);stroke:none" transform="matrix(4.60928 0 0 -4.60928 -2767.269 1211.922)"/><path d="M669.96 221.393q-3.873-3.312-3.872-9.188V190.41c0-1.826.318-3.744.964-5.763.798-2.509 1.808-4.049 3.021-4.617h-.849v-1.481h18.454l.114.738c.038.267.598.86 1.684 1.768 1.08.91 1.796 1.841 2.135 2.794q1.138 3.589 1.14 6.493v5.324h-.065l-5.304-2.83.016-4.395s-.401-6.996-7.804-6.859c-8.099.147-7.89 6.719-7.89 6.719s-.225 23.193-.038 26.033c.245 3.619 2.667 7.271 8.881 6.889 6.706-.414 6.596-7.844 6.596-7.844v-4.305l5.608-3.977v6.682c0 .305-.045.742-.144 1.319q-.138.854-.197 1.196c-.344 3.509-1.805 6.138-4.392 7.894-2.238 1.558-5.127 2.341-8.659 2.341q-5.752 0-9.399-3.136" style="fill:url(#r);stroke:none" transform="matrix(4.60928 0 0 -4.60928 -2767.269 1211.922)"/><path d="m717.465 205.259-2.901-3.587 2.976-5.961v9.548z" style="fill:url(#s);stroke:none" transform="matrix(4.60928 0 0 -4.60928 -2767.269 1211.922)"/><path d="m716.306 182.053 2.637-3.233h.019v6.192z" style="fill:url(#t);stroke:none" transform="matrix(4.60928 0 0 -4.60928 -2767.269 1211.922)"/><path d="m717.931 224.346-3.078-3.254 3.143-6.551v9.805z" style="fill:url(#u);stroke:none" transform="matrix(4.60928 0 0 -4.60928 -2767.269 1211.922)"/><path d="M702.942 201.672h11.622l2.901 3.587h-7.736v.063z" style="fill:url(#v);stroke:none" transform="matrix(4.60928 0 0 -4.60928 -2767.269 1211.922)"/><path d="M702.833 201.672h.109l6.787 3.65v9.112h.097l-6.993 6.609z" style="fill:url(#w);stroke:none" transform="matrix(4.60928 0 0 -4.60928 -2767.269 1211.922)"/><path d="M702.833 221.069v-.026l6.993-6.609h8.17v.107l-3.131 6.528z" style="fill:url(#x);stroke:none" transform="matrix(4.60928 0 0 -4.60928 -2767.269 1211.922)"/><path d="M702.833 201.672v-.051l6.961-5.933h7.746v.023l-2.976 5.961z" style="fill:url(#y);stroke:none" transform="matrix(4.60928 0 0 -4.60928 -2767.269 1211.922)"/><path d="M702.833 182.041h13.48l-.007.012 2.656 2.959v.019h-9.233v.028z" style="fill:url(#z);stroke:none" transform="matrix(4.60928 0 0 -4.60928 -2767.269 1211.922)"/><path d="m702.833 182.041 6.896 3.018v10.629h.065l-6.961 5.933z" style="fill:url(#A);stroke:none" transform="matrix(4.60928 0 0 -4.60928 -2767.269 1211.922)"/><path d="m697.627 224.346 5.206-3.305v.028h12.032l-.012.023 3.078 3.254z" style="fill:url(#B);stroke:none" transform="matrix(4.60928 0 0 -4.60928 -2767.269 1211.922)"/><path d="M697.635 178.82h21.308l-2.63 3.221h-13.48v.016z" style="fill:url(#C);stroke:none" transform="matrix(4.60928 0 0 -4.60928 -2767.269 1211.922)"/><path d="M697.594 224.346V178.82h.041l5.198 3.237v38.984l-5.206 3.305z" style="fill:url(#D);stroke:none" transform="matrix(4.60928 0 0 -4.60928 -2767.269 1211.922)"/><path d="M0 0c-23.57 0-45.32-4.395-56.806-11.928l109.945 2.44C39.056-2.99 23.576 0 0 0" style="fill:#fff;fill-opacity:1;fill-rule:nonzero;stroke:none" transform="matrix(4.60928 0 0 -4.60928 349.828 375.924)"/><path d="m0 0-.362 2.447L-1.306 0Zm1.188-2.1H.266L.077-.77h-1.669l-.511-1.33h-.779l2.205 5.512H.345z" style="fill:#000;fill-opacity:1;fill-rule:nonzero;stroke:none" transform="matrix(4.60928 0 0 -4.60928 175.521 420.693)"/><path d="M0 0h-.854l.768 5.512h.855z" style="fill:#000;fill-opacity:1;fill-rule:nonzero;stroke:none" transform="matrix(4.60928 0 0 -4.60928 187.23 430.37)"/><path d="M0 0h1.141q.524 0 .693.279c.109.188.168.385.168.592q0 .266-.117.455a.56.56 0 0 1-.277.252q-.159.065-.474.065H.226Zm2.331-3.066h-.883L.964-.805H-.113L-.43-3.066h-.821l.769 5.511H1.25q.515.002.817-.117.309-.112.547-.504c.16-.26.24-.562.24-.896a1.95 1.95 0 0 0-.265-1.002 1.27 1.27 0 0 0-.817-.615Z" style="fill:#000;fill-opacity:1;fill-rule:nonzero;stroke:none" transform="matrix(4.60928 0 0 -4.60928 197.65 416.236)"/><path d="M0 0h-.84l.764 5.512h2.833l-.122-.864H.651l-.213-1.49H2.09l-.112-.822H.327Z" style="fill:#000;fill-opacity:1;fill-rule:nonzero;stroke:none" transform="matrix(4.60928 0 0 -4.60928 224.04 430.37)"/><path d="M0 0c0-.539.088-.918.269-1.148q.263-.346.642-.346c.45 0 .773.297.985.885a5.5 5.5 0 0 1 .313 1.834c0 .968-.32 1.447-.949 1.447-.428 0-.742-.307-.949-.912A5.5 5.5 0 0 1 0 0m-.871.174q0 1.27.594 2.297Q.312 3.499 1.309 3.5q.828 0 1.3-.666.481-.668.481-1.828-.002-1.302-.603-2.317Q1.884-2.321.885-2.32q-.733-.002-1.243.685C-.703-1.178-.871-.576-.871.174" style="fill:#000;fill-opacity:1;fill-rule:nonzero;stroke:none" transform="matrix(4.60928 0 0 -4.60928 240.353 420.369)"/><path d="M0 0h1.142q.53 0 .695.279.163.282.165.592a.84.84 0 0 1-.116.455.55.55 0 0 1-.278.252q-.156.065-.468.065H.231Zm2.332-3.066h-.88L.964-.805H-.109l-.315-2.261h-.823l.767 5.511h1.733c.343 0 .619-.037.82-.117.204-.074.383-.244.545-.504a1.7 1.7 0 0 0 .239-.896c0-.362-.085-.698-.267-1.002a1.26 1.26 0 0 0-.818-.615Z" style="fill:#000;fill-opacity:1;fill-rule:nonzero;stroke:none" transform="matrix(4.60928 0 0 -4.60928 262.036 416.236)"/><path d="M0 0q-.595-1.66-1.824-1.658c-.498 0-.908.215-1.219.648S-3.512.008-3.512.752c0 .928.198 1.727.603 2.393q.603 1 1.548 1.001.739.001 1.17-.511.434-.516.491-1.424l-.744-.162c-.074.847-.382 1.269-.936 1.269q-.667.001-.963-.953c-.193-.636-.299-1.24-.299-1.816 0-.444.09-.783.252-1.01q.25-.338.633-.338c.236 0 .448.113.641.328.192.221.335.489.44.805z" style="fill:#000;fill-opacity:1;fill-rule:nonzero;stroke:none" transform="matrix(4.60928 0 0 -4.60928 293.234 423.402)"/><path d="M0 0h-2.989l.768 5.512H.688l-.122-.864h-2.083l-.193-1.431H.011L-.103 2.4h-1.724L-2.044.863H.124z" style="fill:#000;fill-opacity:1;fill-rule:nonzero;stroke:none" transform="matrix(4.60928 0 0 -4.60928 309.02 430.37)"/><path d="M0 0c0 .693-.225 1.045-.674 1.045-.47 0-.764-.352-.896-1.045Zm.521-1.375c-.31-.836-.809-1.258-1.493-1.258-.446 0-.804.166-1.06.498q-.385.492-.384 1.322 0 1.047.487 1.77.485.724 1.251.725.686 0 1.041-.522C.594.811.71.34.71-.264Q.712-.411.704-.586h-2.355a2 2 0 0 1-.023-.307q-.001-.461.184-.748a.61.61 0 0 1 .533-.279q.531-.001.807.76z" style="fill:#000;fill-opacity:1;fill-rule:nonzero;stroke:none" transform="matrix(4.60928 0 0 -4.60928 331.467 418.703)"/><path d="M0 0h-1.653l.107.742h1.65z" style="fill:#000;fill-opacity:1;fill-rule:nonzero;stroke:none" transform="matrix(4.60928 0 0 -4.60928 343.23 422.673)"/><path d="m0 0-.755-.332c-.16.451-.449.686-.873.686q-.386 0-.601-.219a.74.74 0 0 1-.209-.531c0-.167.046-.301.146-.403q.137-.157.473-.271l.631-.219c.184-.065.355-.162.521-.297q.244-.205.367-.506a1.7 1.7 0 0 0 .121-.638c0-.499-.158-.936-.466-1.301q-.467-.553-1.365-.553c-.928 0-1.523.459-1.797 1.375l.75.32q.274-.868 1.096-.867.474 0 .701.26a.86.86 0 0 1 .228.592.7.7 0 0 1-.081.332l-.219.211a4 4 0 0 1-.525.207q-.55.186-.822.357a1.3 1.3 0 0 0-.438.492c-.116.215-.169.473-.169.77q0 .757.451 1.234c.306.321.716.483 1.239.483Q-.433 1.182 0 0" style="fill:#000;fill-opacity:1;fill-rule:nonzero;stroke:none" transform="matrix(4.60928 0 0 -4.60928 360.793 409.79)"/><path d="m0 0-.229-1.691h.817q.43 0 .6.068c.118.045.213.143.305.289q.129.226.13.547a.93.93 0 0 1-.116.49c-.081.127-.174.211-.281.244C1.117-.016.927 0 .647 0Zm-.649-4.709h-.862L-.744.803H.489q.598-.001.876-.032c.181-.017.364-.089.539-.212A1.4 1.4 0 0 0 2.33.023c.108-.234.16-.498.16-.783 0-.385-.091-.72-.263-1.017-.17-.295-.377-.487-.607-.58A2.3 2.3 0 0 0 .765-2.5H-.347z" style="fill:#000;fill-opacity:1;fill-rule:nonzero;stroke:none" transform="matrix(4.60928 0 0 -4.60928 369.048 408.666)"/><path d="M0 0c0-.539.087-.918.266-1.148.172-.231.393-.346.649-.346.441 0 .769.297.976.885q.312.886.31 1.834c0 .968-.314 1.447-.949 1.447-.42 0-.736-.307-.945-.912A5.5 5.5 0 0 1 0 0m-.876.174c0 .847.202 1.611.596 2.297Q.31 3.499 1.304 3.5q.835 0 1.306-.666c.321-.445.475-1.055.475-1.828q.001-1.302-.601-2.317Q1.882-2.321.882-2.32q-.733-.002-1.243.685Q-.877-.95-.876.174" style="fill:#000;fill-opacity:1;fill-rule:nonzero;stroke:none" transform="matrix(4.60928 0 0 -4.60928 385.699 420.369)"/><path d="M0 0h1.145q.525 0 .689.279c.109.188.17.385.17.592a.84.84 0 0 1-.117.455.56.56 0 0 1-.272.252q-.158.065-.477.065H.233Zm2.335-3.066h-.879L.968-.805H-.109l-.315-2.261h-.827l.772 5.511h1.733q.52.002.817-.117.31-.112.547-.504c.158-.26.24-.562.24-.896a2 2 0 0 0-.264-1.002 1.27 1.27 0 0 0-.823-.615Z" style="fill:#000;fill-opacity:1;fill-rule:nonzero;stroke:none" transform="matrix(4.60928 0 0 -4.60928 407.367 416.236)"/><path d="M0 0h-1.166l-.653-4.648h-.848L-2.017 0h-1.164l.118.863H.12Z" style="fill:#000;fill-opacity:1;fill-rule:nonzero;stroke:none" transform="matrix(4.60928 0 0 -4.60928 437.125 408.944)"/><path d="m0 0-.759-.332c-.154.451-.45.686-.874.686q-.382 0-.595-.219a.7.7 0 0 1-.214-.531q-.001-.25.142-.403.147-.157.479-.271l.634-.219q.267-.096.518-.297c.162-.137.287-.305.364-.506a1.7 1.7 0 0 0 .12-.638 1.96 1.96 0 0 0-.464-1.301c-.315-.369-.765-.553-1.359-.553q-1.395 0-1.804 1.375l.753.32q.274-.868 1.097-.867.472 0 .7.26a.85.85 0 0 1 .232.592.64.64 0 0 1-.088.332l-.217.211a4 4 0 0 1-.527.207q-.55.186-.82.357a1.3 1.3 0 0 0-.438.492 1.6 1.6 0 0 0-.172.77q0 .757.454 1.234.452.482 1.243.483Q-.441 1.182 0 0" style="fill:#000;fill-opacity:1;fill-rule:nonzero;stroke:none" transform="matrix(4.60928 0 0 -4.60928 453.401 409.79)"/><path d="M0 0h-1.167l-.654-4.648h-.846L-2.015 0h-1.168l.12.863H.124z" style="fill:#000;fill-opacity:1;fill-rule:nonzero;stroke:none" transform="matrix(4.60928 0 0 -4.60928 477.96 408.944)"/><path d="M0 0h-2.984l.767 5.512H.687l-.121-.864h-2.079l-.202-1.431H.011L-.101 2.4h-1.73L-2.044.863H.124z" style="fill:#000;fill-opacity:1;fill-rule:nonzero;stroke:none" transform="matrix(4.60928 0 0 -4.60928 491.063 430.37)"/><path d="m0 0-.362 2.447L-1.308 0Zm1.183-2.1H.268L.075-.77H-1.59l-.514-1.33h-.776l2.205 5.512H.343z" style="fill:#000;fill-opacity:1;fill-rule:nonzero;stroke:none" transform="matrix(4.60928 0 0 -4.60928 505.742 420.693)"/><path d="M0 0h-.828l.7 5.021L-2.088 0h-.449l-.621 4.977L-3.848 0h-.645l.77 5.512h1.262l.475-3.703L-.58 5.512H.767z" style="fill:#000;fill-opacity:1;fill-rule:nonzero;stroke:none" transform="matrix(4.60928 0 0 -4.60928 534.24 430.37)"/></svg>